<svg preserveAspectRatio="none" width="100%" height="100%" overflow="visible" style="display: block;" viewBox="0 0 110 95.2765" fill="none" xmlns="http://www.w3.org/2000/svg">
<g id="BUBBLE" filter="url(#filter0_n_0_4)">
<g id="Bubble" filter="url(#filter1_i_0_4)">
<path d="M104.038 0.000976562C107.331 0.00111739 110 2.61149 110 5.83179V38.4186C110 41.6389 107.331 44.2492 104.038 44.2494H86.0054L78.7472 54.1852C77.8825 55.3689 76.0832 55.3689 75.2185 54.1852L67.9603 44.2494H49.928C46.6351 44.2493 43.9659 41.6389 43.9658 38.4186V5.83179C43.9659 2.61148 46.6352 0.00110679 49.928 0.000976562H104.038Z" fill="var(--fill-0, #0866FF)"/>
<path d="M104.038 0.000976562C107.331 0.00111739 110 2.61149 110 5.83179V38.4186C110 41.6389 107.331 44.2492 104.038 44.2494H86.0054L78.7472 54.1852C77.8825 55.3689 76.0832 55.3689 75.2185 54.1852L67.9603 44.2494H49.928C46.6351 44.2493 43.9659 41.6389 43.9658 38.4186V5.83179C43.9659 2.61148 46.6352 0.00110679 49.928 0.000976562H104.038Z" fill="url(#paint0_linear_0_4)"/>
<path d="M104.038 0.000976562C107.331 0.00111739 110 2.61149 110 5.83179V38.4186C110 41.6389 107.331 44.2492 104.038 44.2494H86.0054L78.7472 54.1852C77.8825 55.3689 76.0832 55.3689 75.2185 54.1852L67.9603 44.2494H49.928C46.6351 44.2493 43.9659 41.6389 43.9658 38.4186V5.83179C43.9659 2.61148 46.6352 0.00110679 49.928 0.000976562H104.038Z" fill="url(#paint1_radial_0_4)"/>
<path d="M104.038 0.000976562C107.331 0.00111739 110 2.61149 110 5.83179V38.4186C110 41.6389 107.331 44.2492 104.038 44.2494H86.0054L78.7472 54.1852C77.8825 55.3689 76.0832 55.3689 75.2185 54.1852L67.9603 44.2494H49.928C46.6351 44.2493 43.9659 41.6389 43.9658 38.4186V5.83179C43.9659 2.61148 46.6352 0.00110679 49.928 0.000976562H104.038Z" fill="url(#paint2_linear_0_4)"/>
</g>
<g id="Grain" opacity="0.6" filter="url(#filter2_n_0_4)">
<path d="M104.038 0C107.33 0 110 2.6112 110 5.83163V38.4179C110 41.6383 107.33 44.249 104.038 44.249H86.006L78.7472 54.1858C77.8825 55.3695 76.0833 55.3695 75.2186 54.1858L67.9598 44.249H49.9283C46.6353 44.249 43.9658 41.6383 43.9658 38.4179V5.83163C43.9658 2.6112 46.6353 1.81092e-08 49.9283 0H104.038Z" fill="url(#paint3_linear_0_4)"/>
</g>
<g id="Heart" filter="url(#filter3_d_0_4)">
<path d="M77.6313 35.8999C85.0154 31.6979 93.5048 25.1643 93.6205 17.4041C93.7051 12.0376 89.5556 8.84328 85.3021 8.76559C81.8784 8.70305 79.4272 10.1687 76.9829 13.7292C74.5383 10.1681 72.0871 8.70815 68.6635 8.7706C64.4101 8.84819 60.2609 12.0368 60.3455 17.4041C60.4612 25.1643 68.9504 31.6979 76.3344 35.8999C76.7368 36.1289 77.2289 36.1289 77.6313 35.8999Z" fill="var(--fill-0, #F4F9FE)"/>
</g>
<g id="Grain_2" filter="url(#filter4_n_0_4)">
<path d="M77.6313 35.8999C85.0154 31.6979 93.5048 25.1643 93.6205 17.4041C93.7051 12.0376 89.5556 8.84328 85.3021 8.76559C81.8784 8.70305 79.4272 10.1687 76.9829 13.7292C74.5383 10.1681 72.0871 8.70815 68.6635 8.7706C64.4101 8.84819 60.2609 12.0368 60.3455 17.4041C60.4612 25.1643 68.9504 31.6979 76.3344 35.8999C76.7368 36.1289 77.2289 36.1289 77.6313 35.8999Z" fill="url(#paint4_linear_0_4)" style="mix-blend-mode:overlay"/>
</g>
<g id="Pip">
<mask id="mask0_0_4" style="mask-type:alpha" maskUnits="userSpaceOnUse" x="39" y="55" width="27" height="41">
<g id="Union">
<path d="M52.5946 74.1979C59.6504 74.1979 65.3706 79.7921 65.3706 86.6925V90.0061C65.3705 92.9162 62.958 95.275 59.9823 95.275H45.2068C42.2313 95.2748 39.8193 92.9161 39.8192 90.0061V86.6925C39.8192 79.7922 45.5388 74.1981 52.5946 74.1979Z" fill="url(#paint5_linear_0_4)"/>
<path d="M52.5952 55.9512C56.7089 55.9514 60.0436 59.2126 60.0438 63.2356C60.0438 67.2588 56.709 70.5205 52.5952 70.5207C48.4813 70.5207 45.146 67.2589 45.146 63.2356C45.1462 59.2125 48.4814 55.9512 52.5952 55.9512Z" fill="url(#paint6_linear_0_4)"/>
</g>
</mask>
<g mask="url(#mask0_0_4)">
<g id="Body" filter="url(#filter5_i_0_4)">
<path d="M65.3715 86.975C65.3715 79.9191 59.6516 74.1992 52.5957 74.1992C45.5399 74.1992 39.82 79.9191 39.82 86.975V90.0072C39.82 92.9174 42.1791 95.2766 45.0893 95.2766H60.1021C63.0123 95.2766 65.3715 92.9174 65.3715 90.0072V86.975Z" fill="url(#paint7_linear_0_4)"/>
<path d="M65.3715 86.975C65.3715 79.9191 59.6516 74.1992 52.5957 74.1992C45.5399 74.1992 39.82 79.9191 39.82 86.975V90.0072C39.82 92.9174 42.1791 95.2766 45.0893 95.2766H60.1021C63.0123 95.2766 65.3715 92.9174 65.3715 90.0072V86.975Z" fill="url(#paint8_radial_0_4)"/>
</g>
<g id="Head" filter="url(#filter6_i_0_4)">
<path d="M52.5962 55.9512C56.7101 55.9512 60.045 59.2127 60.0451 63.2359C60.0451 67.2593 56.7102 70.521 52.5962 70.521C48.4823 70.521 45.1473 67.2593 45.1473 63.2359C45.1474 59.2127 48.4823 55.9512 52.5962 55.9512Z" fill="url(#paint9_linear_0_4)"/>
</g>
<g id="Head_2" filter="url(#filter7_n_0_4)">
<path d="M52.5962 55.9512C56.7101 55.9512 60.045 59.2127 60.0451 63.2359C60.0451 67.2593 56.7102 70.521 52.5962 70.521C48.4823 70.521 45.1473 67.2593 45.1473 63.2359C45.1474 59.2127 48.4823 55.9512 52.5962 55.9512Z" fill="url(#paint10_linear_0_4)" style="mix-blend-mode:overlay"/>
</g>
<g id="Shadow" filter="url(#filter8_f_0_4)">
<path d="M47.9715 80.3217C47.9715 73.2658 42.2516 67.5459 35.1957 67.5459C28.1399 67.5459 22.42 73.2658 22.42 80.3217V91.2186C22.42 94.1774 24.8185 96.576 27.7773 96.576H42.6141C45.5729 96.576 47.9715 94.1774 47.9715 91.2186V80.3217Z" fill="var(--fill-0, #0866FF)" fill-opacity="0.4"/>
</g>
</g>
</g>
<g id="Pip_2">
<mask id="mask1_0_4" style="mask-type:alpha" maskUnits="userSpaceOnUse" x="20" y="47" width="27" height="49">
<g id="Union_2">
<path d="M33.2438 66.2454C40.2996 66.2454 46.0198 71.8396 46.0198 78.74V89.9181C46.0198 92.8768 43.5673 95.2753 40.5419 95.2753H25.9463C22.921 95.2753 20.4684 92.8768 20.4684 89.9181V78.74C20.4684 71.8397 26.1881 66.2456 33.2438 66.2454Z" fill="var(--fill-0, #0866FF)"/>
<path d="M33.2445 47.7881C37.3581 47.7883 40.6928 51.0495 40.693 55.0725C40.693 59.0957 37.3583 62.3575 33.2445 62.3576C29.1305 62.3576 25.7952 59.0959 25.7952 55.0725C25.7955 51.0494 29.1306 47.7881 33.2445 47.7881Z" fill="var(--fill-0, #0866FF)"/>
</g>
</mask>
<g mask="url(#mask1_0_4)">
<g id="Body_2" filter="url(#filter9_i_0_4)">
<path d="M46.0197 79.0218C46.0197 71.966 40.2998 66.2461 33.2439 66.2461C26.1881 66.2461 20.4682 71.966 20.4682 79.0218V89.9188C20.4682 92.8776 22.8668 95.2762 25.8255 95.2762H40.6624C43.6211 95.2762 46.0197 92.8776 46.0197 89.9188V79.0218Z" fill="var(--fill-0, #0866FF)"/>
<path d="M46.0197 79.0218C46.0197 71.966 40.2998 66.2461 33.2439 66.2461C26.1881 66.2461 20.4682 71.966 20.4682 79.0218V89.9188C20.4682 92.8776 22.8668 95.2762 25.8255 95.2762H40.6624C43.6211 95.2762 46.0197 92.8776 46.0197 89.9188V79.0218Z" fill="url(#paint11_linear_0_4)"/>
<path d="M46.0197 79.0218C46.0197 71.966 40.2998 66.2461 33.2439 66.2461C26.1881 66.2461 20.4682 71.966 20.4682 79.0218V89.9188C20.4682 92.8776 22.8668 95.2762 25.8255 95.2762H40.6624C43.6211 95.2762 46.0197 92.8776 46.0197 89.9188V79.0218Z" fill="url(#paint12_radial_0_4)"/>
<path d="M46.0197 79.0218C46.0197 71.966 40.2998 66.2461 33.2439 66.2461C26.1881 66.2461 20.4682 71.966 20.4682 79.0218V89.9188C20.4682 92.8776 22.8668 95.2762 25.8255 95.2762H40.6624C43.6211 95.2762 46.0197 92.8776 46.0197 89.9188V79.0218Z" fill="url(#paint13_linear_0_4)"/>
</g>
<g id="Head_3" filter="url(#filter10_i_0_4)">
<path d="M33.2445 47.7881C37.3584 47.7881 40.6933 51.0496 40.6933 55.0728C40.6933 59.0962 37.3584 62.3579 33.2445 62.3579C29.1305 62.3579 25.7956 59.0962 25.7956 55.0728C25.7956 51.0496 29.1305 47.7881 33.2445 47.7881Z" fill="var(--fill-0, #0866FF)"/>
<path d="M33.2445 47.7881C37.3584 47.7881 40.6933 51.0496 40.6933 55.0728C40.6933 59.0962 37.3584 62.3579 33.2445 62.3579C29.1305 62.3579 25.7956 59.0962 25.7956 55.0728C25.7956 51.0496 29.1305 47.7881 33.2445 47.7881Z" fill="url(#paint14_linear_0_4)"/>
<path d="M33.2445 47.7881C37.3584 47.7881 40.6933 51.0496 40.6933 55.0728C40.6933 59.0962 37.3584 62.3579 33.2445 62.3579C29.1305 62.3579 25.7956 59.0962 25.7956 55.0728C25.7956 51.0496 29.1305 47.7881 33.2445 47.7881Z" fill="url(#paint15_radial_0_4)"/>
<path d="M33.2445 47.7881C37.3584 47.7881 40.6933 51.0496 40.6933 55.0728C40.6933 59.0962 37.3584 62.3579 33.2445 62.3579C29.1305 62.3579 25.7956 59.0962 25.7956 55.0728C25.7956 51.0496 29.1305 47.7881 33.2445 47.7881Z" fill="url(#paint16_linear_0_4)"/>
</g>
<g id="Grain_3" filter="url(#filter11_n_0_4)">
<path d="M33.2445 47.7881C37.3584 47.7881 40.6933 51.0496 40.6933 55.0728C40.6933 59.0962 37.3584 62.3579 33.2445 62.3579C29.1305 62.3579 25.7956 59.0962 25.7956 55.0728C25.7956 51.0496 29.1305 47.7881 33.2445 47.7881Z" fill="url(#paint17_linear_0_4)" style="mix-blend-mode:overlay"/>
</g>
<g id="Shadow_2" filter="url(#filter12_f_0_4)">
<path d="M19.66 78.8027C27.1623 78.8029 33.2438 84.7509 33.2438 92.0879C33.2437 94.5335 31.2162 96.5159 28.7154 96.5159L7.82881 96.5152C5.32821 96.5151 3.30115 94.5328 3.30109 92.0873C3.30109 84.7502 9.3832 78.8025 16.8856 78.8027H19.66Z" fill="var(--fill-0, #003AB9)" fill-opacity="0.4"/>
</g>
</g>
</g>
<g id="Pip_3">
<g id="Body_3">
<path d="M29.943 90.848C29.943 83.511 23.9953 77.5632 16.6583 77.563L13.2851 77.5629C5.94803 77.5627 4.5491e-05 83.5105 4.65729e-05 90.8476C4.69336e-05 93.2932 1.98255 95.2757 4.42815 95.2758L25.5145 95.2764C27.9602 95.2765 29.943 93.2938 29.943 90.848Z" fill="url(#paint18_linear_0_4)"/>
<path d="M29.943 90.848C29.943 83.511 23.9953 77.5632 16.6583 77.563L13.2851 77.5629C5.94803 77.5627 4.5491e-05 83.5105 4.65729e-05 90.8476C4.69336e-05 93.2932 1.98255 95.2757 4.42815 95.2758L25.5145 95.2764C27.9602 95.2765 29.943 93.2938 29.943 90.848Z" fill="url(#paint19_radial_0_4)"/>
</g>
<g id="Head_4" filter="url(#filter13_i_0_4)">
<path d="M14.9709 59.627C19.0848 59.627 22.4197 62.8884 22.4198 66.9117C22.4198 70.935 19.0848 74.1968 14.9709 74.1968C10.8569 74.1968 7.522 70.935 7.522 66.9117C7.52206 62.8884 10.857 59.627 14.9709 59.627Z" fill="url(#paint20_linear_0_4)"/>
</g>
<g id="Grain_4" filter="url(#filter14_n_0_4)">
<path d="M14.9709 59.627C19.0848 59.627 22.4197 62.8884 22.4198 66.9117C22.4198 70.935 19.0848 74.1968 14.9709 74.1968C10.8569 74.1968 7.522 70.935 7.522 66.9117C7.52206 62.8884 10.857 59.627 14.9709 59.627Z" fill="url(#paint21_linear_0_4)" style="mix-blend-mode:overlay"/>
</g>
</g>
</g>
<defs>
<filter id="filter0_n_0_4" x="4.65729e-05" y="0" width="110" height="95.2764" filterUnits="userSpaceOnUse" color-interpolation-filters="sRGB">
<feFlood flood-opacity="0" result="BackgroundImageFix"/>
<feBlend mode="normal" in="SourceGraphic" in2="BackgroundImageFix" result="shape"/>
<feTurbulence type="fractalNoise" baseFrequency="4.3890824317932129 4.3890824317932129" stitchTiles="stitch" numOctaves="3" result="noise" seed="9451" />
<feColorMatrix in="noise" type="luminanceToAlpha" result="alphaNoise" />
<feComponentTransfer in="alphaNoise" result="coloredNoise1">
<feFuncA type="discrete" tableValues="1 1 1 1 1 1 1 1 1 1 1 1 1 1 1 1 1 1 1 1 1 1 1 1 1 1 1 1 1 1 1 1 1 1 1 1 1 1 1 1 1 1 1 1 1 1 1 1 1 1 1 0 0 0 0 0 0 0 0 0 0 0 0 0 0 0 0 0 0 0 0 0 0 0 0 0 0 0 0 0 0 0 0 0 0 0 0 0 0 0 0 0 0 0 0 0 0 0 0 0 "/>
</feComponentTransfer>
<feComposite operator="in" in2="shape" in="coloredNoise1" result="noise1Clipped" />
<feComponentTransfer in="alphaNoise" result="coloredNoise2">
<feFuncA type="discrete" tableValues="0 0 0 0 0 0 0 0 0 0 0 0 0 0 0 0 0 0 0 0 0 0 0 0 0 0 0 0 0 0 0 0 0 0 0 0 0 0 0 0 0 0 0 0 0 0 0 0 0 1 1 1 1 1 1 1 1 1 1 1 1 1 1 1 1 1 1 1 1 1 1 1 1 1 1 1 1 1 1 1 1 1 1 1 1 1 1 1 1 1 1 1 1 1 1 1 1 1 1 1 "/>
</feComponentTransfer>
<feComposite operator="in" in2="shape" in="coloredNoise2" result="noise2Clipped" />
<feFlood flood-color="rgba(0, 0, 0, 0.06)" result="color1Flood" />
<feComposite operator="in" in2="noise1Clipped" in="color1Flood" result="color1" />
<feFlood flood-color="rgba(255, 255, 255, 0.06)" result="color2Flood" />
<feComposite operator="in" in2="noise2Clipped" in="color2Flood" result="color2" />
<feMerge result="effect1_noise_0_4">
<feMergeNode in="shape" />
<feMergeNode in="color1" />
<feMergeNode in="color2" />
</feMerge>
</filter>
<filter id="filter1_i_0_4" x="42.9056" y="-0.529125" width="67.0943" height="55.6021" filterUnits="userSpaceOnUse" color-interpolation-filters="sRGB">
<feFlood flood-opacity="0" result="BackgroundImageFix"/>
<feBlend mode="normal" in="SourceGraphic" in2="BackgroundImageFix" result="shape"/>
<feColorMatrix in="SourceAlpha" type="matrix" values="0 0 0 0 0 0 0 0 0 0 0 0 0 0 0 0 0 0 127 0" result="hardAlpha"/>
<feOffset dx="-1.0602" dy="-0.530102"/>
<feGaussianBlur stdDeviation="1.5903"/>
<feComposite in2="hardAlpha" operator="arithmetic" k2="-1" k3="1"/>
<feColorMatrix type="matrix" values="0 0 0 0 0.0470588 0 0 0 0 0.278431 0 0 0 0 0.572549 0 0 0 0.4 0"/>
<feBlend mode="normal" in2="shape" result="effect1_innerShadow_0_4"/>
</filter>
<filter id="filter2_n_0_4" x="43.9658" y="0" width="66.0342" height="55.0736" filterUnits="userSpaceOnUse" color-interpolation-filters="sRGB">
<feFlood flood-opacity="0" result="BackgroundImageFix"/>
<feBlend mode="normal" in="SourceGraphic" in2="BackgroundImageFix" result="shape"/>
<feTurbulence type="fractalNoise" baseFrequency="3.7331955432891846 3.7331955432891846" stitchTiles="stitch" numOctaves="3" result="noise" seed="7087" />
<feColorMatrix in="noise" type="luminanceToAlpha" result="alphaNoise" />
<feComponentTransfer in="alphaNoise" result="coloredNoise1">
<feFuncA type="discrete" tableValues="1 1 1 1 1 1 1 1 1 1 1 1 1 1 1 1 1 1 1 1 1 1 1 1 1 1 1 1 1 1 1 1 1 1 1 1 1 1 1 1 1 1 1 1 1 1 1 1 1 1 1 0 0 0 0 0 0 0 0 0 0 0 0 0 0 0 0 0 0 0 0 0 0 0 0 0 0 0 0 0 0 0 0 0 0 0 0 0 0 0 0 0 0 0 0 0 0 0 0 0 "/>
</feComponentTransfer>
<feComposite operator="in" in2="shape" in="coloredNoise1" result="noise1Clipped" />
<feFlood flood-color="#FFFFFF" result="color1Flood" />
<feComposite operator="in" in2="noise1Clipped" in="color1Flood" result="color1" />
<feMerge result="effect1_noise_0_4">
<feMergeNode in="shape" />
<feMergeNode in="color1" />
</feMerge>
</filter>
<filter id="filter3_d_0_4" x="58.8406" y="7.26002" width="37.2872" height="31.3177" filterUnits="userSpaceOnUse" color-interpolation-filters="sRGB">
<feFlood flood-opacity="0" result="BackgroundImageFix"/>
<feColorMatrix in="SourceAlpha" type="matrix" values="0 0 0 0 0 0 0 0 0 0 0 0 0 0 0 0 0 0 127 0" result="hardAlpha"/>
<feOffset dx="0.501218" dy="0.501218"/>
<feGaussianBlur stdDeviation="1.00244"/>
<feComposite in2="hardAlpha" operator="out"/>
<feColorMatrix type="matrix" values="0 0 0 0 0 0 0 0 0 0.227451 0 0 0 0 0.72549 0 0 0 0.8 0"/>
<feBlend mode="normal" in2="BackgroundImageFix" result="effect1_dropShadow_0_4"/>
<feBlend mode="normal" in="SourceGraphic" in2="effect1_dropShadow_0_4" result="shape"/>
</filter>
<filter id="filter4_n_0_4" x="60.3443" y="8.76367" width="33.2775" height="27.308" filterUnits="userSpaceOnUse" color-interpolation-filters="sRGB">
<feFlood flood-opacity="0" result="BackgroundImageFix"/>
<feBlend mode="normal" in="SourceGraphic" in2="BackgroundImageFix" result="shape"/>
<feTurbulence type="fractalNoise" baseFrequency="3.0565705299377441 3.0565705299377441" stitchTiles="stitch" numOctaves="3" result="noise" seed="7087" />
<feColorMatrix in="noise" type="luminanceToAlpha" result="alphaNoise" />
<feComponentTransfer in="alphaNoise" result="coloredNoise1">
<feFuncA type="discrete" tableValues="1 1 1 1 1 1 1 1 1 1 1 1 1 1 1 1 1 1 1 1 1 1 1 1 1 1 1 1 1 1 1 1 1 1 1 1 1 1 1 1 1 1 1 1 1 1 1 1 1 1 1 0 0 0 0 0 0 0 0 0 0 0 0 0 0 0 0 0 0 0 0 0 0 0 0 0 0 0 0 0 0 0 0 0 0 0 0 0 0 0 0 0 0 0 0 0 0 0 0 0 "/>
</feComponentTransfer>
<feComposite operator="in" in2="shape" in="coloredNoise1" result="noise1Clipped" />
<feFlood flood-color="#ADD5FF" result="color1Flood" />
<feComposite operator="in" in2="noise1Clipped" in="color1Flood" result="color1" />
<feMerge result="effect1_noise_0_4">
<feMergeNode in="shape" />
<feMergeNode in="color1" />
</feMerge>
</filter>
<filter id="filter5_i_0_4" x="38.4806" y="73.5296" width="26.8908" height="21.747" filterUnits="userSpaceOnUse" color-interpolation-filters="sRGB">
<feFlood flood-opacity="0" result="BackgroundImageFix"/>
<feBlend mode="normal" in="SourceGraphic" in2="BackgroundImageFix" result="shape"/>
<feColorMatrix in="SourceAlpha" type="matrix" values="0 0 0 0 0 0 0 0 0 0 0 0 0 0 0 0 0 0 127 0" result="hardAlpha"/>
<feOffset dx="-1.33934" dy="-0.669668"/>
<feGaussianBlur stdDeviation="1.0045"/>
<feComposite in2="hardAlpha" operator="arithmetic" k2="-1" k3="1"/>
<feColorMatrix type="matrix" values="0 0 0 0 0.372549 0 0 0 0 0.690196 0 0 0 0 1 0 0 0 0.3 0"/>
<feBlend mode="normal" in2="shape" result="effect1_innerShadow_0_4"/>
</filter>
<filter id="filter6_i_0_4" x="44.4777" y="55.2815" width="15.5675" height="15.2395" filterUnits="userSpaceOnUse" color-interpolation-filters="sRGB">
<feFlood flood-opacity="0" result="BackgroundImageFix"/>
<feBlend mode="normal" in="SourceGraphic" in2="BackgroundImageFix" result="shape"/>
<feColorMatrix in="SourceAlpha" type="matrix" values="0 0 0 0 0 0 0 0 0 0 0 0 0 0 0 0 0 0 127 0" result="hardAlpha"/>
<feOffset dx="-0.669668" dy="-0.669668"/>
<feGaussianBlur stdDeviation="1.67417"/>
<feComposite in2="hardAlpha" operator="arithmetic" k2="-1" k3="1"/>
<feColorMatrix type="matrix" values="0 0 0 0 0.372549 0 0 0 0 0.690196 0 0 0 0 1 0 0 0 0.4 0"/>
<feBlend mode="normal" in2="shape" result="effect1_innerShadow_0_4"/>
</filter>
<filter id="filter7_n_0_4" x="45.1473" y="55.9512" width="14.8978" height="14.5698" filterUnits="userSpaceOnUse" color-interpolation-filters="sRGB">
<feFlood flood-opacity="0" result="BackgroundImageFix"/>
<feBlend mode="normal" in="SourceGraphic" in2="BackgroundImageFix" result="shape"/>
<feTurbulence type="fractalNoise" baseFrequency="3.7331955432891846 3.7331955432891846" stitchTiles="stitch" numOctaves="3" result="noise" seed="7087" />
<feColorMatrix in="noise" type="luminanceToAlpha" result="alphaNoise" />
<feComponentTransfer in="alphaNoise" result="coloredNoise1">
<feFuncA type="discrete" tableValues="1 1 1 1 1 1 1 1 1 1 1 1 1 1 1 1 1 1 1 1 1 1 1 1 1 1 1 1 1 1 1 1 1 1 1 1 1 1 1 1 1 1 1 1 1 1 1 1 1 1 1 0 0 0 0 0 0 0 0 0 0 0 0 0 0 0 0 0 0 0 0 0 0 0 0 0 0 0 0 0 0 0 0 0 0 0 0 0 0 0 0 0 0 0 0 0 0 0 0 0 "/>
</feComponentTransfer>
<feComposite operator="in" in2="shape" in="coloredNoise1" result="noise1Clipped" />
<feFlood flood-color="#FFFFFF" result="color1Flood" />
<feComposite operator="in" in2="noise1Clipped" in="color1Flood" result="color1" />
<feMerge result="effect1_noise_0_4">
<feMergeNode in="shape" />
<feMergeNode in="color1" />
</feMerge>
</filter>
<filter id="filter8_f_0_4" x="18.402" y="63.5279" width="33.5875" height="37.0661" filterUnits="userSpaceOnUse" color-interpolation-filters="sRGB">
<feFlood flood-opacity="0" result="BackgroundImageFix"/>
<feBlend mode="normal" in="SourceGraphic" in2="BackgroundImageFix" result="shape"/>
<feGaussianBlur stdDeviation="2.009" result="effect1_foregroundBlur_0_4"/>
</filter>
<filter id="filter9_i_0_4" x="19.1289" y="65.5764" width="26.8908" height="29.6997" filterUnits="userSpaceOnUse" color-interpolation-filters="sRGB">
<feFlood flood-opacity="0" result="BackgroundImageFix"/>
<feBlend mode="normal" in="SourceGraphic" in2="BackgroundImageFix" result="shape"/>
<feColorMatrix in="SourceAlpha" type="matrix" values="0 0 0 0 0 0 0 0 0 0 0 0 0 0 0 0 0 0 127 0" result="hardAlpha"/>
<feOffset dx="-1.33934" dy="-0.669668"/>
<feGaussianBlur stdDeviation="1.0045"/>
<feComposite in2="hardAlpha" operator="arithmetic" k2="-1" k3="1"/>
<feColorMatrix type="matrix" values="0 0 0 0 0.0470588 0 0 0 0 0.278431 0 0 0 0 0.572549 0 0 0 0.2 0"/>
<feBlend mode="normal" in2="shape" result="effect1_innerShadow_0_4"/>
</filter>
<filter id="filter10_i_0_4" x="24.4562" y="47.1184" width="16.2371" height="15.2395" filterUnits="userSpaceOnUse" color-interpolation-filters="sRGB">
<feFlood flood-opacity="0" result="BackgroundImageFix"/>
<feBlend mode="normal" in="SourceGraphic" in2="BackgroundImageFix" result="shape"/>
<feColorMatrix in="SourceAlpha" type="matrix" values="0 0 0 0 0 0 0 0 0 0 0 0 0 0 0 0 0 0 127 0" result="hardAlpha"/>
<feOffset dx="-1.33934" dy="-0.669668"/>
<feGaussianBlur stdDeviation="1.0045"/>
<feComposite in2="hardAlpha" operator="arithmetic" k2="-1" k3="1"/>
<feColorMatrix type="matrix" values="0 0 0 0 0.0470588 0 0 0 0 0.278431 0 0 0 0 0.572549 0 0 0 0.2 0"/>
<feBlend mode="normal" in2="shape" result="effect1_innerShadow_0_4"/>
</filter>
<filter id="filter11_n_0_4" x="25.7956" y="47.7881" width="14.8978" height="14.5698" filterUnits="userSpaceOnUse" color-interpolation-filters="sRGB">
<feFlood flood-opacity="0" result="BackgroundImageFix"/>
<feBlend mode="normal" in="SourceGraphic" in2="BackgroundImageFix" result="shape"/>
<feTurbulence type="fractalNoise" baseFrequency="3.7331955432891846 3.7331955432891846" stitchTiles="stitch" numOctaves="3" result="noise" seed="7087" />
<feColorMatrix in="noise" type="luminanceToAlpha" result="alphaNoise" />
<feComponentTransfer in="alphaNoise" result="coloredNoise1">
<feFuncA type="discrete" tableValues="1 1 1 1 1 1 1 1 1 1 1 1 1 1 1 1 1 1 1 1 1 1 1 1 1 1 1 1 1 1 1 1 1 1 1 1 1 1 1 1 1 1 1 1 1 1 1 1 1 1 1 0 0 0 0 0 0 0 0 0 0 0 0 0 0 0 0 0 0 0 0 0 0 0 0 0 0 0 0 0 0 0 0 0 0 0 0 0 0 0 0 0 0 0 0 0 0 0 0 0 "/>
</feComponentTransfer>
<feComposite operator="in" in2="shape" in="coloredNoise1" result="noise1Clipped" />
<feFlood flood-color="#FFFFFF" result="color1Flood" />
<feComposite operator="in" in2="noise1Clipped" in="color1Flood" result="color1" />
<feMerge result="effect1_noise_0_4">
<feMergeNode in="shape" />
<feMergeNode in="color1" />
</feMerge>
</filter>
<filter id="filter12_f_0_4" x="0.622418" y="76.1241" width="35.3001" height="23.0705" filterUnits="userSpaceOnUse" color-interpolation-filters="sRGB">
<feFlood flood-opacity="0" result="BackgroundImageFix"/>
<feBlend mode="normal" in="SourceGraphic" in2="BackgroundImageFix" result="shape"/>
<feGaussianBlur stdDeviation="1.33934" result="effect1_foregroundBlur_0_4"/>
</filter>
<filter id="filter13_i_0_4" x="6.85233" y="58.9573" width="15.5675" height="15.2395" filterUnits="userSpaceOnUse" color-interpolation-filters="sRGB">
<feFlood flood-opacity="0" result="BackgroundImageFix"/>
<feBlend mode="normal" in="SourceGraphic" in2="BackgroundImageFix" result="shape"/>
<feColorMatrix in="SourceAlpha" type="matrix" values="0 0 0 0 0 0 0 0 0 0 0 0 0 0 0 0 0 0 127 0" result="hardAlpha"/>
<feOffset dx="-0.669668" dy="-0.669668"/>
<feGaussianBlur stdDeviation="1.0045"/>
<feComposite in2="hardAlpha" operator="arithmetic" k2="-1" k3="1"/>
<feColorMatrix type="matrix" values="0 0 0 0 0.0313726 0 0 0 0 0.4 0 0 0 0 1 0 0 0 0.2 0"/>
<feBlend mode="normal" in2="shape" result="effect1_innerShadow_0_4"/>
</filter>
<filter id="filter14_n_0_4" x="7.522" y="59.627" width="14.8978" height="14.5698" filterUnits="userSpaceOnUse" color-interpolation-filters="sRGB">
<feFlood flood-opacity="0" result="BackgroundImageFix"/>
<feBlend mode="normal" in="SourceGraphic" in2="BackgroundImageFix" result="shape"/>
<feTurbulence type="fractalNoise" baseFrequency="3.7331955432891846 3.7331955432891846" stitchTiles="stitch" numOctaves="3" result="noise" seed="7087" />
<feColorMatrix in="noise" type="luminanceToAlpha" result="alphaNoise" />
<feComponentTransfer in="alphaNoise" result="coloredNoise1">
<feFuncA type="discrete" tableValues="1 1 1 1 1 1 1 1 1 1 1 1 1 1 1 1 1 1 1 1 1 1 1 1 1 1 1 1 1 1 1 1 1 1 1 1 1 1 1 1 1 1 1 1 1 1 1 1 1 1 1 0 0 0 0 0 0 0 0 0 0 0 0 0 0 0 0 0 0 0 0 0 0 0 0 0 0 0 0 0 0 0 0 0 0 0 0 0 0 0 0 0 0 0 0 0 0 0 0 0 "/>
</feComponentTransfer>
<feComposite operator="in" in2="shape" in="coloredNoise1" result="noise1Clipped" />
<feFlood flood-color="#FFFFFF" result="color1Flood" />
<feComposite operator="in" in2="noise1Clipped" in="color1Flood" result="color1" />
<feMerge result="effect1_noise_0_4">
<feMergeNode in="shape" />
<feMergeNode in="color1" />
</feMerge>
</filter>
<linearGradient id="paint0_linear_0_4" x1="89.8524" y1="46.6262" x2="47.9563" y2="-0.927497" gradientUnits="userSpaceOnUse">
<stop stop-color="#0866FF" stop-opacity="0"/>
<stop offset="1" stop-color="#499CFF"/>
</linearGradient>
<radialGradient id="paint1_radial_0_4" cx="0" cy="0" r="1" gradientTransform="matrix(51.7031 54.1539 -64.6489 41.4787 43.9658 0.000976562)" gradientUnits="userSpaceOnUse">
<stop stop-color="#42BDFF"/>
<stop offset="1" stop-color="#0866FF" stop-opacity="0"/>
</radialGradient>
<linearGradient id="paint2_linear_0_4" x1="99.4671" y1="55.073" x2="80.7652" y2="21.6803" gradientUnits="userSpaceOnUse">
<stop stop-color="#7D74FF"/>
<stop offset="1" stop-color="#7D74FF" stop-opacity="0"/>
</linearGradient>
<linearGradient id="paint3_linear_0_4" x1="6.30616" y1="-48.1937" x2="77.941" y2="29.1306" gradientUnits="userSpaceOnUse">
<stop stop-color="white"/>
<stop offset="1" stop-color="#5FB0FF" stop-opacity="0"/>
</linearGradient>
<linearGradient id="paint4_linear_0_4" x1="97.8725" y1="46.0881" x2="71.2803" y2="14.7135" gradientUnits="userSpaceOnUse">
<stop stop-color="#ADD5FF"/>
<stop offset="1" stop-color="#ADD5FF" stop-opacity="0"/>
</linearGradient>
<linearGradient id="paint5_linear_0_4" x1="44.4225" y1="47.1536" x2="54.8484" y2="67.8033" gradientUnits="userSpaceOnUse">
<stop stop-color="#EBF5FF"/>
<stop offset="1" stop-color="#ADD5FF"/>
</linearGradient>
<linearGradient id="paint6_linear_0_4" x1="44.4225" y1="47.1536" x2="54.8484" y2="67.8033" gradientUnits="userSpaceOnUse">
<stop stop-color="#EBF5FF"/>
<stop offset="1" stop-color="#ADD5FF"/>
</linearGradient>
<linearGradient id="paint7_linear_0_4" x1="43.6092" y1="65.0678" x2="55.1725" y2="89.6805" gradientUnits="userSpaceOnUse">
<stop stop-color="#EBF5FF"/>
<stop offset="1" stop-color="#ADD5FF"/>
</linearGradient>
<radialGradient id="paint8_radial_0_4" cx="0" cy="0" r="1" gradientTransform="matrix(2.09628 25.6596 32.6135 -2.54826 54.7128 74.1992)" gradientUnits="userSpaceOnUse">
<stop stop-color="#5FB0FF" stop-opacity="0"/>
<stop offset="1" stop-color="#5FB0FF"/>
</radialGradient>
<linearGradient id="paint9_linear_0_4" x1="44.4238" y1="47.1536" x2="54.8497" y2="67.8033" gradientUnits="userSpaceOnUse">
<stop stop-color="#EBF5FF"/>
<stop offset="1" stop-color="#ADD5FF"/>
</linearGradient>
<linearGradient id="paint10_linear_0_4" x1="39.9421" y1="48.2856" x2="51.1634" y2="61.9658" gradientUnits="userSpaceOnUse">
<stop stop-color="white"/>
<stop offset="1" stop-color="#5FB0FF" stop-opacity="0"/>
</linearGradient>
<linearGradient id="paint11_linear_0_4" x1="36.8236" y1="92.0311" x2="22.9662" y2="61.9205" gradientUnits="userSpaceOnUse">
<stop stop-color="#0866FF" stop-opacity="0"/>
<stop offset="1" stop-color="#499CFF"/>
</linearGradient>
<radialGradient id="paint12_radial_0_4" cx="0" cy="0" r="1" gradientTransform="matrix(24.2569 32.4588 -27.1221 19.3854 22.6738 62.8173)" gradientUnits="userSpaceOnUse">
<stop stop-color="#42BDFF"/>
<stop offset="1" stop-color="#0866FF" stop-opacity="0"/>
</radialGradient>
<linearGradient id="paint13_linear_0_4" x1="41.9895" y1="99.7189" x2="33.5361" y2="84.4042" gradientUnits="userSpaceOnUse">
<stop stop-color="#7D74FF"/>
<stop offset="1" stop-color="#7D74FF" stop-opacity="0"/>
</linearGradient>
<linearGradient id="paint14_linear_0_4" x1="37.3958" y1="62.3579" x2="27.5859" y2="47.5849" gradientUnits="userSpaceOnUse">
<stop stop-color="#0866FF" stop-opacity="0"/>
<stop offset="1" stop-color="#499CFF"/>
</linearGradient>
<radialGradient id="paint15_radial_0_4" cx="0" cy="0" r="1" gradientTransform="matrix(10.6627 16.9288 15.7519 -9.48902 27.0065 45.4292)" gradientUnits="userSpaceOnUse">
<stop stop-color="#42BDFF"/>
<stop offset="1" stop-color="#0866FF" stop-opacity="0"/>
</radialGradient>
<linearGradient id="paint16_linear_0_4" x1="37.4106" y1="65.4836" x2="29.7796" y2="53.8266" gradientUnits="userSpaceOnUse">
<stop stop-color="#7D74FF"/>
<stop offset="1" stop-color="#7D74FF" stop-opacity="0"/>
</linearGradient>
<linearGradient id="paint17_linear_0_4" x1="15.0502" y1="34.4045" x2="31.0903" y2="53.8611" gradientUnits="userSpaceOnUse">
<stop stop-color="white"/>
<stop offset="1" stop-color="#5FB0FF" stop-opacity="0"/>
</linearGradient>
<linearGradient id="paint18_linear_0_4" x1="6.68409" y1="77.5625" x2="12.7792" y2="96.0987" gradientUnits="userSpaceOnUse">
<stop stop-color="#ADD5FF"/>
<stop offset="1" stop-color="#5FB0FF"/>
</linearGradient>
<radialGradient id="paint19_radial_0_4" cx="0" cy="0" r="1" gradientTransform="matrix(15.5199 27.6216 31.0111 -16.665 7.17703 73.5382)" gradientUnits="userSpaceOnUse">
<stop stop-color="#5FB0FF" stop-opacity="0"/>
<stop offset="1" stop-color="#1D85FC"/>
</radialGradient>
<linearGradient id="paint20_linear_0_4" x1="10.8476" y1="59.627" x2="17.9365" y2="72.668" gradientUnits="userSpaceOnUse">
<stop stop-color="#ADD5FF"/>
<stop offset="1" stop-color="#5FB0FF"/>
</linearGradient>
<linearGradient id="paint21_linear_0_4" x1="4.76082" y1="52.7667" x2="13.5696" y2="65.58" gradientUnits="userSpaceOnUse">
<stop stop-color="white"/>
<stop offset="1" stop-color="#5FB0FF" stop-opacity="0"/>
</linearGradient>
</defs>
</svg>
