<svg width="40" height="40" xmlns="http://www.w3.org/2000/svg">
  <defs>
    <linearGradient x1="50%" y1="97.078%" x2="50%" y2="0%" id="a">
      <stop stop-color="#0062E0" offset="0%"/>
      <stop stop-color="#19AFFF" offset="100%"/>
    </linearGradient>
  </defs>
  <g fill="none" fill-rule="evenodd">
    <path d="M40 20C40 8.954 31.046 0 20 0S0 8.954 0 20c0 9.987 7.32 18.264 16.889 19.759V25.778h-5.111V20h5.11l.004-4.406c0-5.013 2.969-7.793 7.537-7.793 1.459 0 2.946.14 4.46.421v4.89h-2.505c-2.484 0-3.278 1.555-3.278 3.136L23.111 20h5.556l-.89 5.778h-4.666v13.98C32.68 38.265 40 29.989 40 20" fill="url(#a)"/>
    <path d="M27.778 25.778L28.667 20H23.11l-.005-3.752c0-1.581.794-3.137 3.278-3.137h2.505V8.222c-1.514-.28-3.001-.42-4.46-.42-4.568 0-7.537 2.78-7.537 7.792L16.89 20h-5.111v5.778h5.11v13.98a20.135 20.135 0 0 0 6.223 0v-13.98h4.667z" fill="#FFF"/>
  </g>
</svg>
