<svg width="24" height="24" viewBox="0 0 24 24" fill="currentColor" >
<g clip-path="url(#clip0_29901_28250)">
<path d="M16.18 8.85L18.28 2.37C16.47 1.19 14.32 0.5 12 0.5C10.03 0.5 8.18 1 6.56 1.87L16.18 8.85Z" fill="currentColor" />
<path d="M19.95 3.71L16.28 15H23.09C23.35 14.04 23.5 13.04 23.5 12C23.5 8.74 22.13 5.81 19.95 3.71Z" fill="currentColor" />
<path d="M1.26 16.09L6.77 12.09L10.44 23.38C6.22 22.81 2.74 19.95 1.26 16.09Z" fill="currentColor" />
<path d="M10.47 17L12.57 23.47C16.87 23.26 20.55 20.68 22.34 17H10.47Z" fill="currentColor" />
<path d="M4.79 3.06L10.3 7.06L0.69 14.04C0.57 13.37 0.5 12.7 0.5 12C0.5 8.39 2.18 5.16 4.79 3.06Z" fill="currentColor" />
</g>
<defs>
<clipPath id="clip0_29901_28250">
<rect width="24" height="24" fill="white" />
</clipPath>
</defs>
</svg>
