<svg width="24" height="24" viewBox="0 0 24 24" fill="currentColor" >
<g clip-path="url(#clip0_29901_26730)">
<path d="M13.7069 8.70711L10.7675 11.6464C10.5723 11.8417 10.5723 12.1583 10.7675 12.3536L13.7069 15.2929C14.0974 15.6834 14.0974 16.3166 13.7069 16.7071C13.3164 17.0976 12.6832 17.0976 12.2927 16.7071L9.35333 13.7678C8.37702 12.7915 8.37701 11.2085 9.35333 10.2322L12.2927 7.29289C12.6832 6.90237 13.3164 6.90237 13.7069 7.29289C14.0974 7.68342 14.0974 8.31658 13.7069 8.70711Z" fill="currentColor" />
<path fill-rule="evenodd" clip-rule="evenodd" d="M23.5 12C23.5 18.3513 18.3513 23.5 12 23.5C5.64873 23.5 0.5 18.3513 0.5 12C0.5 5.64873 5.64873 0.5 12 0.5C18.3513 0.5 23.5 5.64873 23.5 12ZM12 21.5C17.2467 21.5 21.5 17.2467 21.5 12C21.5 6.75329 17.2467 2.5 12 2.5C6.75329 2.5 2.5 6.75329 2.5 12C2.5 17.2467 6.75329 21.5 12 21.5Z" fill="currentColor" />
</g>
<defs>
<clipPath id="clip0_29901_26730">
<rect width="24" height="24" fill="white" />
</clipPath>
</defs>
</svg>
