<svg width="24" height="24" viewBox="0 0 24 24" fill="none" xmlns="http://www.w3.org/2000/svg">
<path fill-rule="evenodd" clip-rule="evenodd" d="M1.58782 3.22717C1.98439 1.90527 3.20109 1 4.5812 1H19.4188C20.7989 1 22.0156 1.90527 22.4122 3.22717L23.2278 5.94602C23.4083 6.5476 23.5 7.17232 23.5 7.80039C23.5 9.22508 22.9271 10.5159 21.999 11.4552C21.9997 11.47 22 11.485 22 11.5V16.0705C22 17.4247 22.0001 18.5413 21.8813 19.4251C21.7565 20.3529 21.4845 21.1723 20.8284 21.8284C20.1723 22.4845 19.3529 22.7565 18.4251 22.8812C17.5413 23.0001 16.4247 23 15.0706 23H8.92943C7.57531 23 6.4587 23.0001 5.57494 22.8812C4.64711 22.7565 3.82768 22.4845 3.17158 21.8284C2.51547 21.1723 2.2435 20.3529 2.11875 19.4251C1.99994 18.5413 1.99997 17.4247 2 16.0706L2 11.5C2 11.4849 2.00034 11.4699 2.001 11.455C1.07294 10.5156 0.5 9.22466 0.5 7.8C0.5 7.17218 0.59165 6.54773 0.772052 5.94639L1.58782 3.22717ZM10 21H14V17.5C14 17.2239 13.7761 17 13.5 17H10.5C10.2239 17 10 17.2239 10 17.5V21ZM16 20.9981V17.5C16 16.1193 14.8807 15 13.5 15H10.5C9.11929 15 8 16.1193 8 17.5V20.9981C7.08166 20.9929 6.3923 20.9731 5.84143 20.8991C5.13538 20.8042 4.80836 20.6368 4.58579 20.4142C4.36322 20.1916 4.19585 19.8646 4.10092 19.1586C4.00213 18.4237 4 17.4425 4 16V12.7161C4.5327 12.9003 5.10466 13.0004 5.7 13.0004C6.88407 13.0004 7.97625 12.6039 8.85 11.9379C9.72375 12.6039 10.8159 13.0004 12 13.0004C13.1841 13.0004 14.2762 12.6039 15.15 11.9379C16.0238 12.6039 17.1159 13.0004 18.3 13.0004C18.8953 13.0004 19.4673 12.9003 20 12.7162V16C20 17.4425 19.9979 18.4237 19.8991 19.1586C19.8042 19.8646 19.6368 20.1916 19.4142 20.4142C19.1916 20.6368 18.8646 20.8042 18.1586 20.8991C17.6077 20.9731 16.9183 20.9929 16 20.9981ZM4.5812 3C4.08431 3 3.64625 3.32593 3.50347 3.80186L2.6877 6.52109C2.56323 6.93599 2.5 7.36683 2.5 7.8C2.5 9.56743 3.93281 11.0004 5.7 11.0004C6.65561 11.0004 7.51244 10.5828 8.10026 9.91677C8.29009 9.7017 8.56314 9.5785 8.85 9.5785C9.13686 9.5785 9.40991 9.7017 9.59974 9.91677C10.1876 10.5828 11.0444 11.0004 12 11.0004C12.9556 11.0004 13.8124 10.5828 14.4003 9.91677C14.5901 9.7017 14.8631 9.5785 15.15 9.5785C15.4369 9.5785 15.7099 9.7017 15.8997 9.91677C16.4876 10.5828 17.3444 11.0004 18.3 11.0004C20.0673 11.0004 21.5 9.5677 21.5 7.80039C21.5 7.36696 21.4367 6.93586 21.3122 6.52071L20.4965 3.80186C20.3537 3.32593 19.9157 3 19.4188 3H4.5812Z" fill="currentColor"/>
</svg>
