<svg width="24" height="24" viewBox="0 0 24 24" fill="none" xmlns="http://www.w3.org/2000/svg">
<path fill-rule="evenodd" clip-rule="evenodd" d="M8.98974 23.0002H7.92962C6.5755 23.0002 5.45886 23.0003 4.57511 22.8814C3.64728 22.7567 2.82785 22.4847 2.17174 21.8286C1.51563 21.1725 1.24366 20.3531 1.11892 19.4253C1.0001 18.5415 1.00013 17.4249 1.00017 16.0708L1.00008 11.77C0.999104 10.032 0.998423 8.82315 1.52803 7.76393C2.05764 6.70471 3.02513 5.97995 4.41609 4.93795L6.64866 3.26363C7.763 2.42785 8.66868 1.74856 9.46377 1.28575C10.2931 0.803007 11.092 0.5 12.0002 0.5C12.9083 0.5 13.7072 0.803007 14.5366 1.28575C15.3317 1.74856 16.2373 2.42784 17.3517 3.26363L19.5842 4.93795C20.9752 5.97995 21.9427 6.70471 22.4723 7.76393C23.0019 8.82315 23.0012 10.032 23.0003 11.77L23.0002 16.0707C23.0002 17.4249 23.0002 18.5415 22.8814 19.4253C22.7567 20.3531 22.4847 21.1725 21.8286 21.8286C21.1725 22.4847 20.3531 22.7567 19.4252 22.8814C18.5415 23.0003 17.4249 23.0002 16.0707 23.0002H15.0103C15.0068 23.0002 15.0034 23.0002 15 23.0002H9C8.99658 23.0002 8.99316 23.0002 8.98974 23.0002ZM7.80017 4.9C8.97467 4.01912 9.7876 3.41141 10.4699 3.01425C11.1295 2.63033 11.575 2.5 12.0002 2.5C12.4254 2.5 12.8709 2.63033 13.5304 3.01425C14.2127 3.41141 15.0257 4.01912 16.2002 4.9L18.2002 6.4C19.8508 7.63794 20.3915 8.07453 20.6834 8.65836C20.9754 9.24219 21.0002 9.93677 21.0002 12V16.0002C21.0002 17.4427 20.998 18.4239 20.8993 19.1588C20.8043 19.8648 20.637 20.1918 20.4144 20.4144C20.1918 20.637 19.8648 20.8043 19.1587 20.8993C18.4239 20.9981 17.4427 21.0002 16.0002 21.0002L16 14.5002C16 13.1195 14.8807 12.0002 13.5 12.0002H10.5C9.11929 12.0002 8 13.1195 8 14.5002V21.0002C6.55761 21.0002 5.57639 20.9981 4.8416 20.8993C4.13555 20.8043 3.80853 20.637 3.58595 20.4144C3.36338 20.1918 3.19601 19.8648 3.10109 19.1588C3.00229 18.4239 3.00017 17.4427 3.00017 16.0002V12C3.00017 9.93677 3.02497 9.24219 3.31689 8.65836C3.6088 8.07453 4.14958 7.63794 5.80017 6.4L7.80017 4.9ZM14 21.0002H10V14.5002C10 14.2241 10.2239 14.0002 10.5 14.0002H13.5C13.7761 14.0002 14 14.2241 14 14.5002V21.0002Z" fill="currentColor" />
</svg>
