<svg width="24" height="24" viewBox="0 0 24 24" fill="currentColor" >
<g clip-path="url(#clip0_29901_27767)">
<path fill-rule="evenodd" clip-rule="evenodd" d="M0.5 12C0.5 5.64873 5.64873 0.5 12 0.5C18.3513 0.5 23.5 5.64873 23.5 12C23.5 18.3513 18.3513 23.5 12 23.5C5.64873 23.5 0.5 18.3513 0.5 12ZM15.2929 16.7071C15.6834 17.0976 16.3166 17.0976 16.7071 16.7071C17.0976 16.3166 17.0976 15.6834 16.7071 15.2929L8.70711 7.29289C8.31658 6.90237 7.68342 6.90237 7.29289 7.29289C6.90237 7.68342 6.90237 8.31658 7.29289 8.70711L15.2929 16.7071Z" fill="currentColor" />
</g>
<defs>
<clipPath id="clip0_29901_27767">
<rect width="24" height="24" fill="white" />
</clipPath>
</defs>
</svg>
