<svg height="66" viewBox="0 0 72 66" width="72" xmlns="http://www.w3.org/2000/svg"><g fill="#fff" fill-rule="evenodd" transform="translate(-264 -10)"><path d="m335.4277 12.498c-1.11-1.973-3.303-2.828-5.331-2.225l-62.763 18.635c-1.989.592-3.3 2.347-3.323 4.464-.024 2.082 1.399 3.901 3.335 4.572l16.154 5.684c.959.332 2.015.2 2.866-.359l38.364-24.866c.52-.342 1.357-.282 1.693.248.32.508.34 1.046-.129 1.402l-34.439 26.375c-.867.656-1.078 1.889-.479 2.804l16.12 24.673c.867 1.323 2.299 2.095 3.832 2.095.187 0 .375-.012.565-.035 1.739-.215 3.19-1.392 3.786-3.07l20-56.366c.469-1.32.434-2.813-.251-4.031"/><path d="m285.4561 49.6738c-.317-.473-.782-.604-1.322-.787 0 0-1.134-.155-1.134 1.939v16.245c0 1.294.569 2.579 1.657 3.287.663.431 1.396.642 2.118.642.873 0 1.733-.307 2.43-.902l5.197-4.386c.656-.554.79-1.508.314-2.22z"/></g></svg>