<svg enable-background="new 0 0 512 512" height="512" viewBox="0 0 512 512" width="512" xmlns="http://www.w3.org/2000/svg"><path d="m467.811 113.129c-9.119-13.548-19.624-26.224-31.164-37.814-11.564-11.528-24.29-21.994-37.801-31.151-13.648-9.245-28.257-17.167-43.402-23.604-15.433-6.525-31.589-11.527-47.994-14.871-16.842-3.443-34.158-5.19-51.461-5.19-17.316 0-34.632 1.747-51.449 5.19-16.431 3.343-32.586 8.345-48.006 14.871-15.145 6.438-29.767 14.359-43.415 23.604-13.511 9.157-26.236 19.623-37.776 31.151-11.552 11.59-22.057 24.266-31.189 37.814-9.207 13.624-17.142 28.245-23.554 43.415-6.538 15.407-11.54 31.575-14.921 48.018-3.42 16.806-5.166 34.122-5.166 51.438 0 17.303 1.747 34.582 5.165 51.425 3.381 16.442 8.383 32.586 14.921 48.018 6.412 15.158 14.347 29.767 23.554 43.39 9.132 13.537 19.637 26.237 31.189 37.814 11.54 11.527 24.265 22.019 37.776 31.189 13.648 9.206 28.27 17.128 43.415 23.554 15.42 6.512 31.576 11.502 48.006 14.87 16.817 3.469 34.133 5.24 51.449 5.24 17.303 0 34.62-1.771 51.461-5.24 16.405-3.368 32.562-8.358 47.994-14.87 15.146-6.426 29.754-14.348 43.402-23.554 13.511-9.171 26.236-19.662 37.801-31.189 11.54-11.577 22.045-24.277 31.164-37.814 9.257-13.623 17.179-28.231 23.566-43.39 6.537-15.432 11.527-31.575 14.896-48.018 3.455-16.843 5.214-34.122 5.214-51.425 0-17.316-1.759-34.632-5.214-51.438-3.369-16.443-8.359-32.611-14.896-48.018-6.387-15.169-14.309-29.791-23.565-43.415zm-211.823-75.302c55.242 0 105.68 20.546 144.093 54.418-.537.798-31.613 48.106-113.94 78.97-37.314-68.515-78.297-122.883-81.565-127.275 16.48-3.967 33.684-6.113 51.412-6.113zm-52.298 6.338h.05c-.25.025-.462.05-.711.175.424-.126.661-.175.661-.175zm-40.795 14.483c2.907 3.881 43.253 58.635 81.016 125.729-104.757 27.834-195.679 26.686-201.431 26.636 14.16-67.568 59.571-123.633 120.415-152.365zm-69.19 343.142c-34.757-38.638-55.903-89.738-55.903-145.79 0-2.346.112-4.616.175-6.961 3.867.149 111.669 2.569 224.011-31.064 6.25 12.251 12.227 24.677 17.703 37.077-2.869.823-5.764 1.672-8.608 2.62-117.744 38.075-177.453 144.005-177.453 144.005s.05.063.075.113zm162.283 72.383c-50.601 0-97.06-17.379-134.063-46.284l-.038.1s-1.983-1.497-4.878-3.843c1.584 1.348 3.306 2.495 4.916 3.743.399-.849 42.429-91.321 171.19-136.209.475-.174.961-.313 1.447-.474 30.702 79.794 43.377 146.613 46.608 165.676-26.186 11.139-54.967 17.291-85.182 17.291zm121.924-37.227c-2.221-13.149-13.849-77.199-42.468-155.846 70.425-11.291 131.468 8.034 135.959 9.481-9.706 60.808-44.5 113.305-93.491 146.365zm-55.766-190.278c-1.534-3.742-3.106-7.485-4.716-11.303-4.528-10.643-9.432-21.233-14.496-31.638 86.144-35.182 121.138-85.746 121.55-86.331 30.614 37.164 49.116 84.634 49.615 136.357-3.157-.648-77-16.517-151.953-7.085zm-118.456-202.503s-.237.05-.661.175c.25-.125.461-.15.711-.175zm-86.68 379.981c1.584 1.348 3.306 2.495 4.916 3.743l-.038.1c0-.001-1.984-1.498-4.878-3.843z" fill="#bec2c9"/></svg>