<svg height="26" viewBox="0 0 26 26" width="26" xmlns="http://www.w3.org/2000/svg"><g fill="none" fill-rule="evenodd" transform="translate(-3 -3)"><path d="m28.25 16c0 6.7655-5.4845 12.25-12.25 12.25s-12.25-5.4845-12.25-12.25 5.4845-12.25 12.25-12.25 12.25 5.4845 12.25 12.25z" stroke="#606770" stroke-width="1.5"/><g fill="#606770"><path d="m9.479 16c-1.7525 0-2.979 1.492-2.979 3.3265 0 .923.728 1.6735 1.6225 1.6735h.514c.225 0 .3935-.198.367-.4225-.0135-.117-.0205-.236-.0205-.357v-.4965c0-1.1565.3505-2.233.9505-3.133.168-.253-.0005-.591-.3025-.591z"/><path d="m22.521 16c1.7525 0 2.979 1.492 2.979 3.3265 0 .923-.728 1.6735-1.6225 1.6735h-.514c-.225 0-.3935-.198-.367-.4225.0135-.117.0205-.236.0205-.357v-.4965c0-1.1565-.3505-2.233-.9505-3.133-.168-.253.0005-.591.3025-.591z"/><path d="m10.25 15c1.103 0 2-1.0095 2-2.25 0-1.3665-.785-2.25-2-2.25s-2 .8835-2 2.25c0 1.2405.897 2.25 2 2.25"/><path d="m21.75 15c1.103 0 2-1.0095 2-2.25 0-1.3665-.785-2.25-2-2.25s-2 .8835-2 2.25c0 1.2405.897 2.25 2 2.25"/><path d="m17.17235 15.5h-2.3445c-2.3865 0-4.328 1.8945-4.328 4.224v.4965c0 .9815.8175 1.7795 1.823 1.7795h7.3545c1.0055 0 1.8225-.798 1.8225-1.7795v-.4965c0-2.3295-1.9415-4.224-4.3275-4.224"/><path d="m18.75 11c0-1.8505-1.0535-3-2.75-3s-2.75 1.1495-2.75 3c0 1.6545 1.2335 3 2.75 3s2.75-1.3455 2.75-3"/></g></g></svg>