
<svg width="26px" height="26px" viewBox="0 0 26 26" version="1.1" xmlns="http://www.w3.org/2000/svg" xmlns:xlink="http://www.w3.org/1999/xlink">
    <g id="Symbols" stroke="none" stroke-width="1" fill="none" fill-rule="evenodd">
        <g id="Navigation-Bar-/-Marketplace" transform="translate(-875.000000, -17.000000)">
            <g id="Actions" transform="translate(428.000000, 0.000000)">
                <g id="Groups" transform="translate(420.000000, 0.000000)">
                    <g id="groups_outline_32@2x" transform="translate(24.000000, 14.000000)">
                        <path d="M28.25,16 C28.25,22.7655 22.7655,28.25 16,28.25 C9.2345,28.25 3.75,22.7655 3.75,16 C3.75,9.2345 9.2345,3.75 16,3.75 C22.7655,3.75 28.25,9.2345 28.25,16 Z" id="Stroke-3" stroke="rgba(255,255,255,.6)" stroke-width="1.5"></path>
                        <path d="M9.479,16 C7.7265,16 6.5,17.492 6.5,19.3265 C6.5,20.2495 7.228,21 8.1225,21 L8.6365,21 C8.8615,21 9.03,20.802 9.0035,20.5775 C8.99,20.4605 8.983,20.3415 8.983,20.2205 L8.983,19.724 C8.983,18.5675 9.3335,17.491 9.9335,16.591 C10.1015,16.338 9.933,16 9.631,16 L9.479,16 Z" id="Fill-5" fill="rgba(255,255,255,.6)"></path>
                        <path d="M22.521,16 C24.2735,16 25.5,17.492 25.5,19.3265 C25.5,20.2495 24.772,21 23.8775,21 L23.3635,21 C23.1385,21 22.97,20.802 22.9965,20.5775 C23.01,20.4605 23.017,20.3415 23.017,20.2205 L23.017,19.724 C23.017,18.5675 22.6665,17.491 22.0665,16.591 C21.8985,16.338 22.067,16 22.369,16 L22.521,16 Z" id="Fill-7" fill="rgba(255,255,255,.6)"></path>
                        <path d="M10.25,15 C11.353,15 12.25,13.9905 12.25,12.75 C12.25,11.3835 11.465,10.5 10.25,10.5 C9.035,10.5 8.25,11.3835 8.25,12.75 C8.25,13.9905 9.147,15 10.25,15" id="Fill-9" fill="rgba(255,255,255,.6)"></path>
                        <path d="M21.75,15 C22.853,15 23.75,13.9905 23.75,12.75 C23.75,11.3835 22.965,10.5 21.75,10.5 C20.535,10.5 19.75,11.3835 19.75,12.75 C19.75,13.9905 20.647,15 21.75,15" id="Fill-11" fill="rgba(255,255,255,.6)"></path>
                        <path d="M17.17235,15.5 L14.82785,15.5 C12.44135,15.5 10.49985,17.3945 10.49985,19.724 L10.49985,20.2205 C10.49985,21.202 11.31735,22 12.32285,22 L19.67735,22 C20.68285,22 21.49985,21.202 21.49985,20.2205 L21.49985,19.724 C21.49985,17.3945 19.55835,15.5 17.17235,15.5" id="Fill-13" fill="rgba(255,255,255,.6)"></path>
                        <path d="M18.75,11 C18.75,9.1495 17.6965,8 16,8 C14.3035,8 13.25,9.1495 13.25,11 C13.25,12.6545 14.4835,14 16,14 C17.5165,14 18.75,12.6545 18.75,11" id="Fill-15" fill="rgba(255,255,255,.6)"></path>
                    </g>
                </g>
            </g>
        </g>
    </g>
</svg>