<svg height="26" viewBox="0 0 26 26" width="26" xmlns="http://www.w3.org/2000/svg"><path d="m23.87745 21h-.514c-.225 0-.393-.198-.3675-.423.014-.1165.021-.2355.021-.3565v-.4965c0-1.1565-.3505-2.233-.9505-3.133-.168-.253.0005-.591.3025-.591h.152c1.7525 0 2.979 1.492 2.979 3.3265 0 .923-.728 1.6735-1.6225 1.6735zm-4.1275-8.25c0-1.3665.785-2.25 2-2.25s2 .8835 2 2.25c0 1.2405-.897 2.25-2 2.25s-2-1.0095-2-2.25zm1.75 7.4705c0 .9815-.8175 1.7795-1.8225 1.7795h-7.3545c-1.0055 0-1.823-.798-1.823-1.7795v-.4965c0-2.3295 1.9415-4.224 4.3275-4.224h2.345c2.386 0 4.3275 1.8945 4.3275 4.224zm-13.25-7.4705c0-1.3665.785-2.25 2-2.25s2 .8835 2 2.25c0 1.2405-.897 2.25-2 2.25s-2-1.0095-2-2.25zm1.6835 3.841c-.6.9-.9505 1.9765-.9505 3.133v.4965c0 .121.0075.24.021.3565.026.225-.1425.423-.367.423h-.5145c-.8945 0-1.6225-.7505-1.6225-1.6735 0-1.8345 1.2265-3.3265 2.979-3.3265h.152c.302 0 .4705.338.3025.591zm6.0665-8.591c1.6965 0 2.75 1.1495 2.75 3 0 1.6545-1.2335 3-2.75 3s-2.75-1.3455-2.75-3c0-1.8505 1.054-3 2.75-3zm0-5c-7.1685 0-13 5.8315-13 13s5.8315 13 13 13 13-5.8315 13-13-5.8315-13-13-13z" fill="#fff" fill-rule="evenodd" transform="translate(-3 -3)"/></svg>