<svg height="149" viewBox="0 0 149 149" width="149" xmlns="http://www.w3.org/2000/svg"><path d="m74.5069844 0c-20.233169 0-22.7724038.08846967-30.7191533.45010886-7.9312284.36319128-13.3449515 1.61883977-18.0819592 3.46118188-4.8999781 1.90287399-9.0565006 4.44831717-13.197502 8.59087076-4.14410569 4.1410014-6.68954887 8.2975239-8.59863126 13.1959499-1.8469984 4.7385598-3.104199 10.153835-3.46118188 18.0819592-.35543079 7.9467495-.44855676 10.4875364-.44855676 30.7207054 0 20.2331691.09002177 22.7646434.45010886 30.711393.36474338 7.931228 1.62039187 13.344951 3.46118188 18.081959 1.90442609 4.899978 4.44986927 9.056501 8.59242286 13.197502 4.1394493 4.144106 8.2959718 6.695757 13.1928457 8.598631 4.7401119 1.842342 10.1553871 3.097991 18.0850634 3.461182 7.9467495.361639 10.4844322.450109 30.7160492.450109 20.2347211 0 22.7661954-.08847 30.7129451-.450109 7.931228-.363191 13.35116-1.61884 18.091272-3.461182 4.898426-1.902874 9.04874-4.454525 13.188189-8.598631 4.144106-4.141001 6.689549-8.297524 8.598631-13.19595 1.831478-4.73856 3.088678-10.153835 3.461182-18.081959.356983-7.9467495.450109-10.4797759.450109-30.712945 0-20.233169-.093126-22.7724038-.450109-30.7191533-.372504-7.9312284-1.629704-13.3449515-3.461182-18.0819592-1.909082-4.8999781-4.454525-9.0565006-8.598631-13.197502-4.144106-4.14410569-8.288211-6.68954887-13.192846-8.59087076-4.749424-1.84234211-10.166251-3.0979906-18.09748-3.46118188-7.9467494-.36163919-10.4766716-.45010886-30.716049-.45010886zm-6.6833404 13.4256607c1.9835832-.0031042 4.196877 0 6.6833404 0 19.8917073 0 22.2493464.0713966 30.1045216.4283794 7.263826.3321493 11.206159 1.5458911 13.832311 2.5656205 3.476703 1.3503266 5.955406 2.9645101 8.561381 5.5720372 2.607527 2.6075272 4.221711 5.0908864 5.575141 8.5675893 1.01973 2.6230481 2.235024 6.5653809 2.565621 13.8292065.356983 7.8536235.434588 10.2128147.434588 30.0952094 0 19.8823946-.077605 22.2415858-.434588 30.095209-.332149 7.263826-1.545891 11.206159-2.565621 13.829207-1.350326 3.476703-2.967614 5.952301-5.575141 8.558276-2.607527 2.607528-5.083126 4.221711-8.561381 5.572038-2.623048 1.024385-6.568485 2.235023-13.832311 2.567172-7.8536231.356983-10.2128143.434588-30.1045216.434588-19.8932593 0-22.2508984-.077605-30.1045219-.434588-7.2638256-.335253-11.2061584-1.548995-13.8338628-2.568724-3.4767029-1.350327-5.9600621-2.96451-8.5675893-5.572038-2.6075271-2.607527-4.2217106-5.084678-5.5751414-8.562933-1.0197294-2.623048-2.2350233-6.56538-2.5656205-13.829206-.3569828-7.8536236-.4283794-10.2128148-.4283794-30.1076262s.0713966-22.2415859.4283794-30.0952094c.3321493-7.2638256 1.5458911-11.2061584 2.5656205-13.8323107 1.3503266-3.4767029 2.9676143-5.9600621 5.5751414-8.5675893 2.6075272-2.6075271 5.0908864-4.2217106 8.5675893-5.5751414 2.6261523-1.0243856 6.5700372-2.2350233 13.8338628-2.5687246 6.8726966-.3104199 9.5360994-.4035459 23.4211815-.4190669zm46.451234 12.370233c-4.935677 0-8.940093 3.9997604-8.940093 8.9369889 0 4.9356764 4.004416 8.9400932 8.940093 8.9400932 4.935676 0 8.940093-4.0044168 8.940093-8.9400932s-4.004417-8.9400931-8.940093-8.9400931zm-39.7678936 10.4456296c-21.1287305 0-38.2592527 17.1305222-38.2592527 38.2592527 0 21.1287306 17.1305222 38.251492 38.2592527 38.251492 21.1287306 0 38.2530446-17.1227614 38.2530446-38.251492 0-21.1287305-17.1258661-38.2592527-38.2545967-38.2592527zm0 13.4256607c13.7143512 0 24.8335921 11.1176888 24.8335921 24.833592 0 13.7143512-11.1192409 24.8335921-24.8335921 24.8335921-13.7159032 0-24.833592-11.1192409-24.833592-24.8335921 0-13.7159032 11.1176888-24.833592 24.833592-24.833592z" fill="#bec2c9"/></svg>