<svg height="36" viewBox="0 0 36 36" width="36" xmlns="http://www.w3.org/2000/svg" xmlns:xlink="http://www.w3.org/1999/xlink"><defs><linearGradient id="a" x1="50%" x2="50%" y1=".356756%" y2="100%"><stop offset="0" stop-color="#4267b2"/><stop offset="1" stop-color="#385898"/></linearGradient><path id="b" d="m23.25 35.2215c7.38-2.247 12.75-9.1065 12.75-17.2215 0-9.9405-8.0595-18-18-18s-18 8.0595-18 18 8.0595 18 18 18l1.5-1.5h3z"/></defs><g fill="none" fill-rule="evenodd"><use fill="#606770" xlink:href="#b"/><use fill="url(#a)" xlink:href="#b"/><path d="m18.503 15.6402378v3.7061792h-4.503v5.2988673h4.5l.003 11.3547157c1.8255 0 3.5865-.2785691 5.247-.7887742v-10.5659415h4.1475l.6525-5.2988673h-4.8v-3.1747785c0-1.4534036.4035-2.4435348 2.4825-2.4435348l2.7675-.001514v-4.49646747c-.459-.06207244-2.265-.23012223-4.0965-.23012223-3.825 0-6.4005 2.3466412-6.4005 6.6402378" fill="#fff"/></g></svg>