<svg height="24" viewBox="0 0 25 24" width="25" xmlns="http://www.w3.org/2000/svg"><g fill="none" fill-rule="evenodd" stroke="#606770" stroke-width="1.5" transform="translate(-2 -2)"><path d="m23.5 14v9c0 .8285-.6715 1.5-1.5 1.5h-15.5c-.8285 0-1.5-.6715-1.5-1.5v-9"/><path d="m3 9.9505v2.0495c0 .8285.6715 1.5 1.5 1.5h.171c.3475 0 .684-.1205.9525-.341l.4705-.387c.369-.3035.901-.3035 1.27 0l.194.1595c.4475.3675 1.0085.5685 1.5875.5685h.1785c.585 0 1.151-.205 1.6005-.5795l.173-.1445c.367-.3055.899-.309 1.27-.008l.215.174c.4455.361 1.001.558 1.5745.558h.1365c.581 0 1.144-.2025 1.592-.572l.1845-.1525c.3695-.305.9035-.305 1.273 0l.1845.1525c.448.37 1.011.572 1.5915.572h.226c.5845 0 1.151-.205 1.6005-.5795l.1645-.137c.3705-.309.9095-.309 1.28 0l.401.334c.2965.2475.6705.3825 1.0565.3825h.0025c.911 0 1.65-.7385 1.65-1.65v-1.8995c0-.5895-.104-1.174-.308-1.727l-1.1575-3.145c-.378-.9525-1.299-1.5785-2.324-1.5785h-14.921c-1.025 0-1.946.626-2.324 1.5785l-1.1575 3.145c-.204.553-.308 1.1375-.308 1.727z"/><path d="m3 9.5h22"/><path d="m17 24.5h-5.5v-7c0-.276.224-.5.5-.5h4.5c.276 0 .5.224.5.5z"/></g></svg>