<svg height="23" viewBox="0 0 25 23" width="25" xmlns="http://www.w3.org/2000/svg"><g fill="none" fill-rule="evenodd" transform="translate(-4 -5)"><path d="m25.5 16v8.97c0 .85-.69 1.53-1.53 1.53h-15.93c-.85 0-1.53-.69-1.53-1.53v-8.97" stroke="#fff" stroke-width="1.5"/><g fill="#fff"><path d="m26.96 11c.35 0 .6-.36.46-.69l-1.82-4.48c-.19-.5-.65-.83-1.17-.83h-16.87c-.52 0-.98.33-1.17.82l-1.82 4.49c-.13.33.11.69.46.69z"/><path d="m4.5 12c-.28 0-.5.22-.5.5v2.35c0 1.19.91 2.15 2.03 2.15h.17c.48 0 .94-.18 1.3-.5l.48-.43c.19-.17.45-.17.63 0l.2.17c.55.49 1.24.75 1.96.75h.18c.72 0 1.42-.27 1.97-.76l.18-.16c.19-.17.45-.17.64 0l.22.19c.54.48 1.23.74 1.94.74h.14c.71 0 1.41-.27 1.96-.76l.19-.17c.19-.17.45-.17.64 0l.19.17c.55.49 1.25.75 1.96.75h.23c.72 0 1.42-.27 1.97-.76l.17-.15c.19-.17.45-.17.64 0l.41.37c.39.35.9.55 1.42.55 1.21 0 2.19-1.04 2.19-2.32v-2.18c0-.28-.22-.5-.5-.5z"/><path d="m18.5 26.5h-5v-6.55c0-.25.2-.45.45-.45h4.09c.25 0 .45.2.45.45v6.55z" stroke="#fff"/></g></g></svg>