
<svg width="25px" height="24px" viewBox="0 0 25 24" version="1.1" xmlns="http://www.w3.org/2000/svg" xmlns:xlink="http://www.w3.org/1999/xlink">
    <g id="Symbols" stroke="none" stroke-width="1" fill="none" fill-rule="evenodd">
        <g id="Navigation-Bar-/-Profile-Underline" transform="translate(-792.000000, -18.000000)" stroke="rgba(255,255,255,.6)" stroke-width="1.5">
            <g id="Actions" transform="translate(428.000000, 0.000000)">
                <g id="Marketplace" transform="translate(336.000000, 0.000000)">
                    <g id="Marketplace-Icon" transform="translate(26.000000, 16.000000)">
                        <path d="M23.5,14 L23.5,23 C23.5,23.8285 22.8285,24.5 22,24.5 L6.5,24.5 C5.6715,24.5 5,23.8285 5,23 L5,14" id="Stroke-16"></path>
                        <path d="M3,9.9505 L3,12 C3,12.8285 3.6715,13.5 4.5,13.5 L4.671,13.5 C5.0185,13.5 5.355,13.3795 5.6235,13.159 L6.094,12.772 C6.463,12.4685 6.995,12.4685 7.364,12.772 L7.558,12.9315 C8.0055,13.299 8.5665,13.5 9.1455,13.5 L9.324,13.5 C9.909,13.5 10.475,13.295 10.9245,12.9205 L11.0975,12.776 C11.4645,12.4705 11.9965,12.467 12.3675,12.768 L12.5825,12.942 C13.028,13.303 13.5835,13.5 14.157,13.5 L14.2935,13.5 C14.8745,13.5 15.4375,13.2975 15.8855,12.928 L16.07,12.7755 C16.4395,12.4705 16.9735,12.4705 17.343,12.7755 L17.5275,12.928 C17.9755,13.298 18.5385,13.5 19.119,13.5 L19.345,13.5 C19.9295,13.5 20.496,13.295 20.9455,12.9205 L21.11,12.7835 C21.4805,12.4745 22.0195,12.4745 22.39,12.7835 L22.791,13.1175 C23.0875,13.365 23.4615,13.5 23.8475,13.5 L23.85,13.5 C24.761,13.5 25.5,12.7615 25.5,11.85 L25.5,9.9505 C25.5,9.361 25.396,8.7765 25.192,8.2235 L24.0345,5.0785 C23.6565,4.126 22.7355,3.5 21.7105,3.5 L6.7895,3.5 C5.7645,3.5 4.8435,4.126 4.4655,5.0785 L3.308,8.2235 C3.104,8.7765 3,9.361 3,9.9505 Z" id="Stroke-17"></path>
                        <path d="M3,9.5 L25,9.5" id="Stroke-18"></path>
                        <path d="M17,24.5 L11.5,24.5 L11.5,17.5 C11.5,17.224 11.724,17 12,17 L16.5,17 C16.776,17 17,17.224 17,17.5 L17,24.5 Z" id="Stroke-19"></path>
                    </g>
                </g>
            </g>
        </g>
    </g>
</svg>