<svg enable-background="new 0 0 160 126.7" viewBox="0 0 160 126.7" xmlns="http://www.w3.org/2000/svg"><g fill="#bec2c9"><path d="m154.5 23.8-.1-.1-44.9-22.4c-.3-.2-.6-.3-.9-.3-.4-.1-.8-.2-1.2-.2-1.7 0-3.4.9-4.4 2.4l-25.8 42 32.4 52.7 45.1-73.3c.1-.3.1-.6-.2-.8z"/><path d="m63 35.6v47.8l42.4 21.2z"/><path d="m111.8 107.8 35 17.5c4.5 2.3 8.2.7 8.2-3.6v-84.1z"/><path d="m55.6 23.9-43.8-21.9c-.8-.4-1.6-.6-2.3-.6-1.9 0-3.3 1.5-3.3 4v94.6c0 2.5 1.9 5.5 4.1 6.7l38.7 19.3c1 .5 1.9.7 2.8.7 2.4 0 4.1-1.9 4.1-5v-97.4c-.1-.1-.2-.3-.3-.4z"/></g></svg>