
<svg width="50px" height="49px" viewBox="0 0 50 49" version="1.1" xmlns="http://www.w3.org/2000/svg" xmlns:xlink="http://www.w3.org/1999/xlink">
    <g id="Page-1" stroke="none" stroke-width="1" fill="none" fill-rule="evenodd">
        <g id="Visual-Systems-Sticker-Sheet" transform="translate(-1610.000000, -264.000000)">
            <g id="ICONS" transform="translate(128.000000, 139.000000)">
                <g id="Default-State" transform="translate(452.000000, 121.000000)">
                    <g id="Messenger" transform="translate(1027.000000, 0.000000)">
                        <path d="M40.9058,20.2319 C40.7718,20.0519 40.5298,19.9939 40.3328,20.0969 L30.9578,24.9339 L26.3818,20.2829 C26.2008,20.0919 25.9138,19.9779 25.7348,20.0039 C25.4918,20.0049 25.2578,20.1089 25.0828,20.2969 L14.6188,32.1389 C14.4698,32.3069 14.4598,32.5609 14.5938,32.7419 C14.7278,32.9219 14.9688,32.9789 15.1678,32.8769 L24.8428,28.0569 L29.1198,32.6909 C29.2878,32.8679 29.5218,32.9699 29.7668,32.9699 C30.0078,32.9689 30.2418,32.8649 30.4188,32.6759 L40.8808,20.8349 C41.0298,20.6669 41.0408,20.4129 40.9058,20.2319" id="Fill-2" fill="rgba(255,255,255,.6)"></path>
                        <path d="M13.4785,50.5 L13.4785,42.842 C8.6805,38.98 5.4705,33.089 5.4705,26.706 C5.4705,15.075 15.5575,5.5 27.9995,5.5 C40.4425,5.5 50.5295,15.075 50.5295,26.706 C50.5295,38.337 40.4425,47.62 27.9995,47.62 C25.6135,47.62 23.3135,47.394 21.1545,46.772 L13.4785,50.5 Z" id="Stroke-4" stroke="rgba(255,255,255,.6)" stroke-width="3"></path>
                    </g>
                </g>
            </g>
        </g>
    </g>
</svg>