<svg height="48" viewBox="0 0 48 48" width="48" xmlns="http://www.w3.org/2000/svg"><path d="m36.879 16.9085531-10.66 11.8620033c-.18.1888439-.419.2933106-.664.2943151-.25 0-.489-.1024578-.659-.2802522l-4.359-4.6417409-9.856 4.8285757c-.202.1004489-.448.045202-.585-.1356059-.137-.1818124-.126-.435948.025-.604702l10.661-11.8609989c.178-.1898483.417-.2933106.664-.2943151.183-.0261167.476.088395.66.2792477l4.662 4.6588172 9.551-4.8446475c.202-.1044668.448-.045202.585.1346014.137.1818124.126.435948-.025.6047021m-12.879-16.9085531c-13.233 0-24 10.2186604-24 22.7807922 0 6.3081871 2.979 12.5721766 8 16.8964992v6.5070757c0 .7091688.378 1.3691177.988 1.7237021.302.17679.42.0441975.764.0441975.352 0 .709-.0934174 1.039-.2832657l5.731-3.5347947c2.115.612738 4.718 1.0677712 7.478 1.0677712 13.233 0 24-10.0237896 24-22.4211853 0-12.5621318-10.767-22.7807922-24-22.7807922" fill="#fff" fill-rule="evenodd"/></svg>