<svg height="26" viewBox="0 0 50 49" width="24" xmlns="http://www.w3.org/2000/svg"><g fill="none" fill-rule="evenodd" transform="translate(-3 -4)"><path d="m40.9058 20.2319c-.134-.18-.376-.238-.573-.135l-9.375 4.837-4.576-4.651c-.181-.191-.468-.305-.647-.279-.243.001-.477.105-.652.293l-10.464 11.842c-.149.168-.159.422-.025.603.134.18.375.237.574.135l9.675-4.82 4.277 4.634c.168.177.402.279.647.279.241-.001.475-.105.652-.294l10.462-11.841c.149-.168.16-.422.025-.603" fill="#606770"/><path d="m13.4785 50.5v-7.658c-4.798-3.862-8.008-9.753-8.008-16.136 0-11.631 10.087-21.206 22.529-21.206 12.443 0 22.53 9.575 22.53 21.206s-10.087 20.914-22.53 20.914c-2.386 0-4.686-.226-6.845-.848z" stroke="#606770" stroke-width="3"/></g></svg>