
<svg width="26px" height="23px" viewBox="0 0 26 23" version="1.1" xmlns="http://www.w3.org/2000/svg" xmlns:xlink="http://www.w3.org/1999/xlink">
    <g id="Symbols" stroke="none" stroke-width="1" fill="none" fill-rule="evenodd">
        <g id="Navigation-Bar-/-Profile" transform="translate(-455.000000, -18.000000)" fill="rgba(255,255,255,.6)">
            <g id="Actions" transform="translate(428.000000, 0.000000)">
                <g id="Feed">
                    <g id="tab-01" transform="translate(24.000000, 14.000000)">
                        <g id="ic3_ol---Home" transform="translate(3.500000, 4.000000)">
                            <path d="M16,21.5 L19.75,21.5 C19.8855,21.5 20,21.3855 20,21.25 L20,11.5 C20,10.9485 20.4485,10.5 21,10.5 L22.8295,10.5 L12.517,1.567 L2.172,10.5 L4,10.5 C4.5515,10.5 5,10.9485 5,11.5 L5,21.25 C5,21.3855 5.1145,21.5 5.25,21.5 L9,21.5 L9,15.25 C9,14.561 9.561,14 10.25,14 L14.75,14 C15.439,14 16,14.561 16,15.25 L16,21.5 Z M19.75,23 L15.5,23 C14.948,23 14.5,22.552 14.5,22 L14.5,15.848 C14.5,15.656 14.344,15.5 14.152,15.5 L10.848,15.5 C10.656,15.5 10.5,15.656 10.5,15.848 L10.5,22 C10.5,22.552 10.052,23 9.5,23 L5.25,23 C4.2835,23 3.5,22.2165 3.5,21.25 L3.5,12 L1.569,12 C1.0665,12 0.579,11.736 0.3675,11.28 C0.1295,10.766 0.2565,10.179 0.675,9.811 L11.501,0.433 C11.7475,0.196 12.108,0.048 12.489,0.0425 C12.892,0.048 13.2525,0.196 13.5265,0.4585 L24.321,9.8075 C24.3225,9.809 24.3235,9.81 24.325,9.811 C24.7435,10.179 24.8705,10.766 24.6325,11.28 C24.421,11.736 23.9335,12 23.431,12 L21.5,12 L21.5,21.25 C21.5,22.2165 20.7165,23 19.75,23 Z" id="Fill-2"></path>
                        </g>
                    </g>
                </g>
            </g>
        </g>
    </g>
</svg>