<svg height="23" viewBox="0 0 25 23" width="25" xmlns="http://www.w3.org/2000/svg"><path d="m24.3252 9.81105c-.0015-.001-.0025-.002-.004-.0035l-10.7945-9.3495c-.2745-.262-.635-.41-1.0375-.4155-.381.0055-.7415.1535-.988.3905l-10.8265 9.378c-.4185.368-.5455.955-.307 1.469.2115.456.699.72 1.201.72h1.9315v9.25c0 .9665.7835 1.75 1.75 1.75h4.25c.552 0 1-.448 1-1v-6.17c0-.1825.1475-.33.33-.33h3.3395c.1825 0 .3305.1475.3305.33v6.17c0 .552.4475 1 1 1h4.25c.9665 0 1.75-.7835 1.75-1.75v-9.25h1.931c.502 0 .9895-.264 1.201-.72.2385-.514.1115-1.101-.307-1.469" fill="#1877f2" fill-rule="evenodd"/></svg>