<svg height="23" viewBox="0 0 26 23" width="26" xmlns="http://www.w3.org/2000/svg"><path d="m16 21.5h3.75c.1355 0 .25-.1145.25-.25v-9.75c0-.5515.4485-1 1-1h1.8295l-10.3125-8.933-10.345 8.933h1.828c.5515 0 1 .4485 1 1v9.75c0 .1355.1145.25.25.25h3.75v-6.25c0-.689.561-1.25 1.25-1.25h4.5c.689 0 1.25.561 1.25 1.25zm3.75 1.5h-4.25c-.552 0-1-.448-1-1v-6.152c0-.192-.156-.348-.348-.348h-3.304c-.192 0-.348.156-.348.348v6.152c0 .552-.448 1-1 1h-4.25c-.9665 0-1.75-.7835-1.75-1.75v-9.25h-1.931c-.5025 0-.99-.264-1.2015-.72-.238-.514-.111-1.101.3075-1.469l10.826-9.378c.2465-.237.607-.385.988-.3905.403.0055.7635.1535 1.0375.416l10.7945 9.349c.0015.0015.0025.0025.004.0035.4185.368.5455.955.3075 1.469-.2115.456-.699.72-1.2015.72h-1.931v9.25c0 .9665-.7835 1.75-1.75 1.75z" fill="#606770" fill-rule="evenodd" transform="translate(.5)"/></svg>