
<svg width="23px" height="24px" viewBox="0 0 23 24" version="1.1" xmlns="http://www.w3.org/2000/svg" xmlns:xlink="http://www.w3.org/1999/xlink">
    <g id="Page-1" stroke="none" stroke-width="1" fill="none" fill-rule="evenodd">
        <g id="Marketplace" transform="translate(-241.000000, -34.000000)" stroke="rgba(255,255,255,.6)" stroke-width="1.5">
            <g id="Tab-Bar" transform="translate(0.000000, 24.000000)">
                <g id="Notifications" transform="translate(224.000000, 5.000000)">
                    <g transform="translate(12.000000, 0.000000)" id="ic3_ol---Notif">
                        <g transform="translate(6.000000, 6.500000)">
                            <path d="M17.91355,9.76735 C16.72255,9.08735 16.09605,8.19735 15.64605,5.88035 C15.10605,3.10185 13.32555,-0.87565 7.50755,0.24985 C1.69155,1.38585 1.53055,5.74085 2.07055,8.51935 C2.52105,10.83585 2.27405,11.89585 1.42455,12.97285 C0.27705,14.42785 -0.22245,14.86885 0.11255,16.59335 C0.35255,17.82735 2.18605,18.04235 3.13255,18.09635 C4.81255,18.19285 7.44605,18.05235 10.84005,17.39335 C14.23355,16.73285 16.72755,15.87635 18.24905,15.15835 C19.10655,14.75335 20.72605,13.86735 20.48655,12.63335 C20.15105,10.90835 19.52255,10.68635 17.91355,9.76735 Z" id="Stroke-3"></path>
                            <path d="M4.31835,18.1201 C4.31535,18.1756 4.30985,18.2311 4.30985,18.2871 C4.30985,19.9271 5.63985,21.2566 7.27935,21.2566 C8.91935,21.2566 10.24835,19.9271 10.24835,18.2871 C10.24835,18.0211 10.21035,17.7646 10.14435,17.5191 C7.77635,17.9426 5.81035,18.1096 4.31835,18.1201 Z" id="Stroke-5"></path>
                        </g>
                    </g>
                </g>
            </g>
        </g>
    </g>
</svg>