<svg height="24" viewBox="0 0 23 24" width="23" xmlns="http://www.w3.org/2000/svg"><g fill="none" fill-rule="evenodd" stroke="#606770" stroke-width="1.5" transform="translate(1 1.5)"><path d="m17.91355 9.76735c-1.191-.68-1.8175-1.57-2.2675-3.887-.54-2.7785-2.3205-6.756-8.1385-5.6305-5.816 1.136-5.977 5.491-5.437 8.2695.4505 2.3165.2035 3.3765-.646 4.4535-1.1475 1.455-1.647 1.896-1.312 3.6205.24 1.234 2.0735 1.449 3.02 1.503 1.68.0965 4.3135-.044 7.7075-.703 3.3935-.6605 5.8875-1.517 7.409-2.235.8575-.405 2.477-1.291 2.2375-2.525-.3355-1.725-.964-1.947-2.573-2.866z"/><path d="m4.31835 18.1201c-.003.0555-.0085.111-.0085.167 0 1.64 1.33 2.9695 2.9695 2.9695 1.64 0 2.969-1.3295 2.969-2.9695 0-.266-.038-.5225-.104-.768-2.368.4235-4.334.5905-5.826.601z"/></g></svg>