<svg height="24" viewBox="0 0 23 24" width="23" xmlns="http://www.w3.org/2000/svg"><g fill="none" fill-rule="evenodd" transform="translate(0 .5)"><path d="m5.14695 21.2483c-.008 0-.0145 0-.022 0 .6575 1.0535 1.824 1.7585 3.1545 1.7585 1.601 0 2.9645-1.019 3.4875-2.4405-3.024.5565-5.2605.682-6.62.682" fill="#0074fb"/><path d="m22.22265 13.49025c-.375-1.9275-1.203-2.395-2.575-3.169l-.362-.205v-.0005c-.93-.531-1.48-1.199-1.9035-3.3785-.9485-4.881-4.237-7.147-9.019-6.2235-4.7795.934-6.9775 4.2685-6.0285 9.1485.4235 2.1795.1645 3.005-.4985 3.846l-.259.3255c-.9825 1.2315-1.5755 1.9755-1.2005 3.903.247 1.272 1.4965 1.9815 3.713 2.1085.278.016.6305.028 1.0575.028 1.438 0 3.72-.1385 6.836-.7435 4.04-.7865 6.4865-1.7745 7.586-2.2935 2.008-.9485 2.9005-2.074 2.6535-3.346" fill="#1877f2"/></g></svg>