<svg height="32" viewBox="0 0 32 32" width="32" xmlns="http://www.w3.org/2000/svg"><g fill="none" fill-rule="evenodd" stroke="#606770" stroke-width="2" transform="translate(-188 -797)"><path d="m219 813c0 8.284-6.716 15-15 15s-15-6.716-15-15 6.716-15 15-15 15 6.716 15 15z"/><path d="m204.0166 814c-3.5 0-5.667-2.687-5.667-6 0-3.936 2.167-6 5.667-6s5.667 2.064 5.667 6c0 3.313-2.167 6-5.667 6z"/><path d="m204 818c-4.002 0-8.493.78-9.654 4.603-.149.486-.259.996-.346 1.518 2.642 2.41 6.143 3.879 9.983 3.879 3.857 0 7.371-1.479 10.017-3.907-.087-.513-.196-1.013-.342-1.49-1.161-3.823-5.656-4.603-9.658-4.603z"/></g></svg>