<svg enable-background="new -219 327.6 171.5 139.4" viewBox="-219 327.6 171.5 139.4" xmlns="http://www.w3.org/2000/svg"><path d="m-47.5 344.1c-6.3 2.8-13.1 4.7-20.2 5.5 7.3-4.4 12.8-11.2 15.5-19.5-6.8 4-14.3 7-22.3 8.5-6.4-6.8-15.6-11.1-25.7-11.1-19.4 0-35.2 15.8-35.2 35.2 0 2.8.3 5.4.9 8-29.2-1.5-55.2-15.5-72.5-36.8-3 5.2-4.8 11.2-4.8 17.7 0 12.2 6.2 23 15.7 29.3-5.8-.2-11.2-1.8-15.9-4.4v.4c0 17 12.1 31.3 28.2 34.5-3 .8-6.1 1.2-9.3 1.2-2.3 0-4.5-.2-6.6-.6 4.5 14 17.5 24.2 32.9 24.4-12 9.4-27.2 15.1-43.7 15.1-2.8 0-5.6-.2-8.4-.5 15.6 10 34.1 15.8 53.9 15.8 64.7 0 100.1-53.6 100.1-100.1 0-1.5 0-3-.1-4.6 6.8-4.7 12.8-10.9 17.5-18z" fill="#bec2c9"/></svg>