<svg height="23" viewBox="0 0 24 23" width="24" xmlns="http://www.w3.org/2000/svg"><g fill="none" fill-rule="evenodd" transform="translate(1 .5)"><path d="m5.75 21.25h10.5" stroke="#606770" stroke-linecap="round" stroke-linejoin="round" stroke-width="1.5"/><path d="m14.16335 9.59595-5.1085 3.0775c-.464.279-1.055-.0545-1.055-.596v-6.155c0-.5415.591-.875 1.055-.596l5.1085 3.0775c.449.2705.449.9215 0 1.192" fill="#606770"/><path d="m18.75 17.75h-15.5c-1.6565 0-3-1.3435-3-3v-11.5c0-1.6565 1.3435-3 3-3h15.5c1.6565 0 3 1.3435 3 3v11.5c0 1.6565-1.3435 3-3 3z" stroke="#606770" stroke-width="1.25"/></g></svg>