<svg height="23" viewBox="0 0 23 23" width="23" xmlns="http://www.w3.org/2000/svg"><g fill="none" fill-rule="evenodd"><path d="m6.25 21.75h10.5" stroke="#fff" stroke-linecap="round" stroke-linejoin="round" stroke-width="1.5"/><path d="m14.66335 10.09595-5.1085 3.0775c-.464.279-1.055-.0545-1.055-.596v-6.155c0-.5415.591-.875 1.055-.596l5.1085 3.0775c.449.2705.449.9215 0 1.192m4.5865-10.096h-15.5c-2.0675 0-3.75 1.682-3.75 3.75v11.5c0 2.068 1.6825 3.75 3.75 3.75h15.5c2.068 0 3.75-1.682 3.75-3.75v-11.5c0-2.068-1.682-3.75-3.75-3.75" fill="#fff"/></g></svg>