<svg height="28" viewBox="0 0 30 28" width="30" xmlns="http://www.w3.org/2000/svg"><path d="m112 411c-2.762 0-5-2.238-5-5s2.238-5 5-5 5 2.238 5 5-2.238 5-5 5m13.088-5.753-.001-.001-1.632-.859c-.079-.481-.19-.963-.334-1.443l1.101-1.488c.622-.842.6-2.003-.054-2.821l-2.039-2.552c-.654-.819-1.783-1.099-2.745-.678l-1.697.741c-.428-.242-.874-.456-1.333-.641l-.478-1.787c-.272-1.012-1.194-1.718-2.243-1.718h-3.27c-1.049 0-1.971.707-2.243 1.72l-.477 1.786c-.456.184-.901.398-1.33.64l-1.7-.741c-.961-.418-2.09-.138-2.744.679l-2.038 2.552c-.654.819-.676 1.98-.052 2.822l1.1 1.486c-.144.48-.255.962-.334 1.443l-1.633.861c-.928.489-1.413 1.544-1.18 2.565l.728 3.182c.234 1.023 1.13 1.763 2.178 1.801l1.851.067c.287.415.595.805.92 1.164l-.343 1.809c-.195 1.029.329 2.064 1.274 2.518l2.945 1.417c.321.155.665.229 1.005.229.662 0 1.312-.281 1.764-.807l1.201-1.395c.514.035.979.035 1.49 0l1.203 1.395c.684.794 1.822 1.032 2.768.578l2.945-1.417c.945-.454 1.47-1.49 1.274-2.52l-.344-1.808c.325-.359.633-.749.921-1.163l1.85-.068c1.049-.038 1.945-.779 2.178-1.801l.728-3.182c.233-1.022-.252-2.077-1.18-2.565" fill="#fff" fill-rule="evenodd" transform="translate(-97 -392)"/></svg>